<?xml version="1.0" encoding="UTF-8"?>
<svg width="17px" height="17px" viewBox="0 0 17 17" version="1.1" xmlns="http://www.w3.org/2000/svg" xmlns:xlink="http://www.w3.org/1999/xlink">
    <title>Icon-android</title>
    <g id="Page-1" stroke="none" stroke-width="1" fill="none" fill-rule="evenodd">
        <g id="Icon-android" transform="translate(0.205107, 0.073456)" fill="#388A34" fill-rule="nonzero">
            <path d="M10.0477266,1.40620364 L10.8816232,0.193483122 C10.9173271,0.141843656 10.9042155,0.0702342446 10.852576,0.0345303966 L10.8317992,0.0202085223 C10.7801598,-0.0156970412 10.7089538,-0.00238374393 10.6732499,0.0492557216 L9.815349,1.29687321 C9.25498015,1.05319949 8.62986025,0.917040746 7.97024679,0.917040746 C7.34432002,0.917040746 6.74905418,1.03968448 6.21127757,1.26056421 L5.39150109,0.0684188058 C5.35599896,0.0167793402 5.28459127,0.00366775841 5.2329518,0.0393716064 L5.21217499,0.0536934808 C5.16053553,0.0893973288 5.14742395,0.16100674 5.18292608,0.212847921 L5.97567253,1.36525515 C4.72926534,1.96253817 3.8336434,3.10143037 3.65129155,4.4462753 L12.289202,4.4462753 C12.1110862,3.13148616 11.2509664,2.01337075 10.0477266,1.40620364 Z M6.15136775,3.14338745 C5.91374554,3.14338745 5.72090442,2.94994119 5.72090442,2.71151209 C5.72090442,2.47308302 5.91374554,2.27983845 6.15136775,2.27983845 C6.38919168,2.27983845 6.58183108,2.473083 6.58183108,2.71151209 C6.58183108,2.94994117 6.38919168,3.14338745 6.15136775,3.14338745 Z M9.86698849,3.14338745 C9.62936627,3.14338745 9.43652516,2.94994119 9.43652516,2.71151209 C9.43652516,2.47308302 9.62936627,2.27983845 9.86698849,2.27983845 C10.1048124,2.27983845 10.2974518,2.473083 10.2974518,2.71151209 C10.2974518,2.94994117 10.1048124,3.14338745 9.86698849,3.14338745 Z M3.05037766,6.17680247 L3.05037766,9.71410568 C3.05037766,10.3204659 2.66409026,10.8166889 2.19166987,10.8166889 L2.00084591,10.8166889 C1.52862723,10.8166889 1.14213812,10.3204659 1.14213812,9.71410568 L1.14213812,6.17680247 C1.14213812,5.57044222 1.52862723,5.07442096 2.00084591,5.07442096 L2.19166987,5.07442096 C2.66409026,5.07442096 3.05037766,5.5704422 3.05037766,6.17680247 Z M14.8578619,6.19778099 L14.8578619,9.7350842 C14.8578619,10.3416462 14.4715745,10.8376674 13.9991541,10.8376674 L13.8083301,10.8376674 C13.3361115,10.8376674 12.9496223,10.3416462 12.9496223,9.7350842 L12.9496223,6.19778099 C12.9496223,5.59142074 13.3361115,5.09539948 13.8083301,5.09539948 L13.9991541,5.09539948 C14.4715745,5.09539948 14.8578619,5.59142074 14.8578619,6.19778099 Z M12.3551634,5.02015917 L12.3551634,11.9997571 C12.3551634,12.4842805 11.9600005,12.8806537 11.4768891,12.8806537 L10.7525246,12.8806537 L10.7525246,14.8976185 C10.7525246,15.5039787 10.3660355,16 9.89381678,16 L9.70299282,16 C9.23077414,16 8.84428503,15.5039788 8.84428503,14.8976185 L8.84428503,12.8806537 L7.23055181,12.8806537 L7.23055181,14.8744211 C7.23055181,15.4807813 6.84426441,15.9770043 6.37184402,15.9770043 L6.18102006,15.9770043 C5.70880138,15.9770043 5.32231227,15.4807813 5.32231227,14.8744211 L5.32231227,12.8806537 L4.53259157,12.8806537 C4.0494802,12.8806537 3.65431726,12.4842805 3.65431726,11.9997571 L3.65431726,5.02015917 L12.3551634,5.02015917 Z" id="Shape"></path>
        </g>
    </g>
</svg>