<?xml version="1.0" encoding="UTF-8"?>
<svg width="200px" height="201px" viewBox="0 0 200 201" version="1.1" xmlns="http://www.w3.org/2000/svg" xmlns:xlink="http://www.w3.org/1999/xlink">
    <!-- Generator: Sketch 60.1 (88133) - https://sketch.com -->
    <title>Combined Shape</title>
    <desc>Created with Sketch.</desc>
    <g id="Page-1" stroke="none" stroke-width="1" fill="none" fill-rule="evenodd">
        <path d="M138.08125,48.8375 C147.589583,48.7083333 156.054167,51.2479167 163.475,56.45625 C167.5125,59.1895833 171.614583,63.1604167 175.78125,68.36875 L175.78125,68.36875 L176.5625,69.34375 L175.5875,70.31875 C169.595833,75.3979167 165.297917,79.825 162.69375,83.6 C157.877083,90.5041667 155.46875,98.1875 155.46875,106.65 C155.46875,115.895833 158.008333,124.229167 163.0875,131.65 C168.1625,138.941667 173.95625,143.564583 180.46875,145.51875 L180.46875,145.51875 L181.8375,145.9 L181.44375,147.26875 C178.452083,156.90625 173.7,166.672917 167.1875,176.56875 C157.029167,192.064583 146.741667,199.8125 136.325,199.8125 C132.55,199.8125 127.016667,198.510417 119.725,195.90625 C113.2125,193.560417 107.547917,192.3875 102.73125,192.3875 C98.30625,192.3875 93.0333333,193.625 86.9125,196.1 C80.4041667,198.704167 75.13125,200.00625 71.09375,200.00625 C58.8520833,200.00625 46.9375,189.85 35.35,169.5375 C29.6208333,159.383333 25.3229167,149.4875 22.45625,139.85 C19.5895833,130.0875 18.15625,120.3875 18.15625,110.75 C18.15625,92.9125 22.5833333,78.2645833 31.4375,66.80625 C35.8625,61.0770833 40.875,56.7791667 46.475,53.9125 C52.2041667,51.0458333 58.4541667,49.6125 65.225,49.6125 C70.9541667,49.6125 77.9208333,50.7854167 86.125,53.13125 C93.8083333,55.4770833 98.9520833,56.65 101.55625,56.65 C104.814583,56.65 110.154167,55.3479167 117.575,52.74375 C125.516667,50.1395833 132.352083,48.8375 138.08125,48.8375 Z M78.6117268,87.3976543 C77.6175848,87.9434157 77,88.9848332 77,90.1172108 L77,152.908286 C77,154.039893 77.6175848,155.082081 78.6117268,155.627843 C79.0706801,155.880681 79.5866175,156.013268 80.1110255,156.0125 C80.6993481,156.0125 81.2745798,155.846764 81.7720359,155.53457 L131.549984,124.143272 C132.45249,123.575156 133,122.585385 133,121.520072 C133.000769,120.455529 132.45326,119.465758 131.550754,118.896871 L81.772806,87.4940105 C80.8148565,86.8888938 79.6012486,86.8511222 78.6117268,87.3976543 Z M139.24375,5.68434189e-14 L139.6375,1.36875 C139.6375,1.49791667 139.670833,1.62916667 139.7375,1.7625 L139.78125,1.86210938 C139.81875,1.96132813 139.8375,2.059375 139.8375,2.15625 C139.8375,2.41458333 139.96875,2.93541667 140.23125,3.71875 L140.23125,3.71875 L140.23125,6.25625 C140.23125,10.94375 139.125,16.0875 136.9125,21.6875 C134.7,27.2875 131.25,32.4958333 126.5625,37.3125 C122.395833,41.35 118.229167,44.0854167 114.0625,45.51875 L114.0625,45.51875 L114.05,45.5125 C111.316667,46.2958333 107.410417,46.9479167 102.33125,47.46875 L102.33125,47.46875 L100.9625,47.6625 L100.9625,46.1 C101.091667,34.9041667 104.020833,25.26875 109.75,17.19375 C115.35,8.98958333 124.725,3.38958333 137.875,0.39375 L137.875,0.39375 L139.24375,5.68434189e-14 Z" id="Combined-Shape" fill="#388A34" fill-rule="nonzero"></path>
    </g>
</svg>