<?xml version="1.0" encoding="UTF-8"?>
<svg width="200px" height="201px" viewBox="0 0 200 201" version="1.1" xmlns="http://www.w3.org/2000/svg" xmlns:xlink="http://www.w3.org/1999/xlink">
    <!-- Generator: Sketch 60.1 (88133) - https://sketch.com -->
    <title>Combined Shape Copy</title>
    <desc>Created with Sketch.</desc>
    <g id="Page-1" stroke="none" stroke-width="1" fill="none" fill-rule="evenodd">
        <path d="M138.08125,48.85 C147.589583,48.7208333 156.054167,51.2604167 163.475,56.46875 C167.5125,59.2020833 171.614583,63.1729167 175.78125,68.38125 L175.78125,68.38125 L176.5625,69.35625 L175.5875,70.33125 C169.595833,75.4104167 165.297917,79.8375 162.69375,83.6125 C157.877083,90.5166667 155.46875,98.2 155.46875,106.6625 C155.46875,115.908333 158.008333,124.241667 163.0875,131.6625 C168.1625,138.954167 173.95625,143.577083 180.46875,145.53125 L180.46875,145.53125 L181.8375,145.9125 L181.44375,147.28125 C178.452083,156.91875 173.7,166.685417 167.1875,176.58125 C157.029167,192.077083 146.741667,199.825 136.325,199.825 C132.55,199.825 127.016667,198.522917 119.725,195.91875 C113.2125,193.572917 107.547917,192.4 102.73125,192.4 C98.30625,192.4 93.0333333,193.6375 86.9125,196.1125 C80.4041667,198.716667 75.13125,200.01875 71.09375,200.01875 C58.8520833,200.01875 46.9375,189.8625 35.35,169.55 C29.6208333,159.395833 25.3229167,149.5 22.45625,139.8625 C19.5895833,130.1 18.15625,120.4 18.15625,110.7625 C18.15625,92.925 22.5833333,78.2770833 31.4375,66.81875 C35.8625,61.0895833 40.875,56.7916667 46.475,53.925 C52.2041667,51.0583333 58.4541667,49.625 65.225,49.625 C70.9541667,49.625 77.9208333,50.7979167 86.125,53.14375 C93.8083333,55.4895833 98.9520833,56.6625 101.55625,56.6625 C104.814583,56.6625 110.154167,55.3604167 117.575,52.75625 C125.516667,50.1520833 132.352083,48.85 138.08125,48.85 Z M122,90.0125 L78,90.0125 C73.581722,90.0125 70,93.594222 70,98.0125 L70,98.0125 L70,142.0125 C70,146.430778 73.581722,150.0125 78,150.0125 L78,150.0125 L122,150.0125 C126.418278,150.0125 130,146.430778 130,142.0125 L130,142.0125 L130,98.0125 C130,93.594222 126.418278,90.0125 122,90.0125 L122,90.0125 Z M139.24375,0.0125 L139.6375,1.38125 C139.6375,1.51041667 139.670833,1.64166667 139.7375,1.775 L139.78125,1.87460938 C139.81875,1.97382813 139.8375,2.071875 139.8375,2.16875 C139.8375,2.42708333 139.96875,2.94791667 140.23125,3.73125 L140.23125,3.73125 L140.23125,6.26875 C140.23125,10.95625 139.125,16.1 136.9125,21.7 C134.7,27.3 131.25,32.5083333 126.5625,37.325 C122.395833,41.3625 118.229167,44.0979167 114.0625,45.53125 L114.0625,45.53125 L114.05,45.525 C111.316667,46.3083333 107.410417,46.9604167 102.33125,47.48125 L102.33125,47.48125 L100.9625,47.675 L100.9625,46.1125 C101.091667,34.9166667 104.020833,25.28125 109.75,17.20625 C115.35,9.00208333 124.725,3.40208333 137.875,0.40625 L137.875,0.40625 L139.24375,0.0125 Z" id="Combined-Shape" fill="#A1260D" fill-rule="nonzero"></path>
    </g>
</svg>