<?xml version="1.0" encoding="UTF-8"?>
<svg width="17px" height="17px" viewBox="0 0 17 17" version="1.1" xmlns="http://www.w3.org/2000/svg" xmlns:xlink="http://www.w3.org/1999/xlink">
    <title>Icon-chaxun</title>
    <g id="Page-1" stroke="none" stroke-width="1" fill="none" fill-rule="evenodd">
        <g id="Icon-chaxun" transform="translate(0.250000, 0.250000)" fill="#388A34" fill-rule="nonzero">
            <g id="Group">
                <path d="M13.9297689,13.1082439 C14.3796397,12.4881536 14.6224443,11.7383879 14.6227469,10.96837 C14.6227469,8.96489343 13.0164482,7.33483273 11.042177,7.33483273 C9.0679059,7.33483273 7.46160716,8.96489343 7.46160716,10.96837 C7.46160716,12.9718465 9.0679059,14.6019072 11.042177,14.6019072 C11.8009701,14.6016001 12.5398063,14.3552037 13.1508573,13.898678 L15.0595765,15.8356328 C15.1626611,15.9408429 15.3028296,16 15.4490323,16 C15.595235,16 15.7354034,15.9408429 15.8384881,15.8356328 C15.941893,15.7308766 16,15.5886896 16,15.4404158 C16,15.292142 15.941893,15.149955 15.8384881,15.0451987 L13.9297689,13.1082439 Z M8.56332097,10.96837 C8.56332097,9.58147675 9.67550106,8.45284419 11.042177,8.45284419 C12.408853,8.45284419 13.5210331,9.58147675 13.5210331,10.96837 C13.5210331,12.3552632 12.408853,13.4838957 11.042177,13.4838957 C9.67550106,13.4838957 8.56332097,12.3552632 8.56332097,10.96837 Z" id="Shape" transform="translate(11.730804, 11.667416) scale(-1, 1) translate(-11.730804, -11.667416) "></path>
                <path d="M15.3009229,7.94889205 C15.3009229,7.64466219 14.9234031,7.39803515 14.4577089,7.39803515 L0.96628445,7.39803515 C0.500590202,7.39803515 0.123070423,7.64466219 0.123070423,7.94889205 C0.123070423,8.25312192 0.500590202,8.49974896 0.96628445,8.49974896 L14.4577089,8.49974896 C14.9234031,8.49974896 15.3009229,8.25312192 15.3009229,7.94889205 Z" id="Path" transform="translate(7.711997, 7.948892) rotate(90.000000) translate(-7.711997, -7.948892) "></path>
                <path d="M14.3222795,0 L1.10171381,0 C0.494118644,0 0,0.501428138 0,1.11801146 L0,14.5341489 C0,15.1507322 0.494118644,15.6521604 1.10171381,15.6521604 L8.25203275,15.6612391 C8.55626262,15.6612391 8.80288965,15.4109638 8.80288965,15.1022334 C8.80288965,14.7935031 8.55626262,14.5432277 8.25203275,14.5432277 L1.10171381,14.5341489 L1.10171381,1.11801146 L14.3222795,1.11801146 L14.3222795,8.58037988 C14.3222795,8.88911022 14.5689066,9.1393856 14.8731364,9.1393856 C15.1773663,9.1393856 15.4239933,8.88911022 15.4239933,8.58037988 L15.4239933,1.11801146 C15.4239933,0.501428138 14.9298747,0 14.3222795,0 Z" id="Path"></path>
            </g>
        </g>
    </g>
</svg>