<?xml version="1.0" encoding="UTF-8"?>
<svg width="200px" height="200px" viewBox="0 0 200 200" version="1.1" xmlns="http://www.w3.org/2000/svg" xmlns:xlink="http://www.w3.org/1999/xlink">
    <!-- Generator: Sketch 60.1 (88133) - https://sketch.com -->
    <title>Combined Shape</title>
    <desc>Created with Sketch.</desc>
    <g id="Page-1" stroke="none" stroke-width="1" fill="none" fill-rule="evenodd">
        <path d="M138.08125,48.825 C147.589583,48.6958333 156.054167,51.2354167 163.475,56.44375 C167.5125,59.1770833 171.614583,63.1479167 175.78125,68.35625 L175.78125,68.35625 L176.5625,69.33125 L175.5875,70.30625 C169.595833,75.3854167 165.297917,79.8125 162.69375,83.5875 C157.877083,90.4916667 155.46875,98.175 155.46875,106.6375 C155.46875,115.883333 158.008333,124.216667 163.0875,131.6375 C168.1625,138.929167 173.95625,143.552083 180.46875,145.50625 L180.46875,145.50625 L181.8375,145.8875 L181.44375,147.25625 C178.452083,156.89375 173.7,166.660417 167.1875,176.55625 C157.029167,192.052083 146.741667,199.8 136.325,199.8 C132.55,199.8 127.016667,198.497917 119.725,195.89375 C113.2125,193.547917 107.547917,192.375 102.73125,192.375 C98.30625,192.375 93.0333333,193.6125 86.9125,196.0875 C80.4041667,198.691667 75.13125,199.99375 71.09375,199.99375 C58.8520833,199.99375 46.9375,189.8375 35.35,169.525 C29.6208333,159.370833 25.3229167,149.475 22.45625,139.8375 C19.5895833,130.075 18.15625,120.375 18.15625,110.7375 C18.15625,92.9 22.5833333,78.2520833 31.4375,66.79375 C35.8625,61.0645833 40.875,56.7666667 46.475,53.9 C52.2041667,51.0333333 58.4541667,49.6 65.225,49.6 C70.9541667,49.6 77.9208333,50.7729167 86.125,53.11875 C93.8083333,55.4645833 98.9520833,56.6375 101.55625,56.6375 C104.814583,56.6375 110.154167,55.3354167 117.575,52.73125 C125.516667,50.1270833 132.352083,48.825 138.08125,48.825 Z M78.6117268,87.3851543 C77.6175848,87.9309157 77,88.9723332 77,90.1047108 L77,152.895786 C77,154.027393 77.6175848,155.069581 78.6117268,155.615343 C79.0706801,155.868181 79.5866175,156.000768 80.1110255,156 C80.6993481,156 81.2745798,155.834264 81.7720359,155.52207 L131.549984,124.130772 C132.45249,123.562656 133,122.572885 133,121.507572 C133.000769,120.443029 132.45326,119.453258 131.550754,118.884371 L81.772806,87.4815105 C80.8148565,86.8763938 79.6012486,86.8386222 78.6117268,87.3851543 Z M139.24375,-0.0125 L139.6375,1.35625 C139.6375,1.48541667 139.670833,1.61666667 139.7375,1.75 L139.78125,1.84960937 C139.81875,1.94882812 139.8375,2.046875 139.8375,2.14375 C139.8375,2.40208333 139.96875,2.92291667 140.23125,3.70625 L140.23125,3.70625 L140.23125,6.24375 C140.23125,10.93125 139.125,16.075 136.9125,21.675 C134.7,27.275 131.25,32.4833333 126.5625,37.3 C122.395833,41.3375 118.229167,44.0729167 114.0625,45.50625 L114.0625,45.50625 L114.05,45.5 C111.316667,46.2833333 107.410417,46.9354167 102.33125,47.45625 L102.33125,47.45625 L100.9625,47.65 L100.9625,46.0875 C101.091667,34.8916667 104.020833,25.25625 109.75,17.18125 C115.35,8.97708333 124.725,3.37708333 137.875,0.38125 L137.875,0.38125 L139.24375,-0.0125 Z" id="Combined-Shape" fill="#89D185" fill-rule="nonzero"></path>
    </g>
</svg>