<?xml version="1.0" encoding="UTF-8"?>
<svg width="15px" height="15px" viewBox="0 0 15 15" version="1.1" xmlns="http://www.w3.org/2000/svg" xmlns:xlink="http://www.w3.org/1999/xlink">
    <!-- Generator: Sketch 45.1 (43504) - http://www.bohemiancoding.com/sketch -->
    <title>image</title>
    <desc>Created with Sketch.</desc>
    <defs></defs>
    <g id="Page-1" stroke="none" stroke-width="1" fill="none" fill-rule="evenodd">
        <g id="Artboard" transform="translate(-34.000000, -149.000000)" fill-rule="nonzero" fill="#C5C5C5">
            <g id="image" transform="translate(34.000000, 149.000000)">
                <path d="M3.21048485,4.81572727 C3.21048484,5.38922516 3.51644231,5.91915907 4.01310605,6.20590802 C4.50976979,6.49265697 5.12168476,6.49265697 5.6183485,6.20590802 C6.11501224,5.91915907 6.42096971,5.38922516 6.4209697,4.81572727 C6.4209697,3.92917636 5.70227818,3.21048485 4.81572727,3.21048485 C3.92917636,3.21048485 3.21048485,3.92917636 3.21048485,4.81572727 L3.21048485,4.81572727 Z" id="Shape"></path>
                <path d="M14.7991071,0 L0.200892857,0 C0.0899497768,0 0,0.104941406 0,0.234375 L0,14.765625 C0,14.8950586 0.0899497768,15 0.200892857,15 L14.7991071,15 C14.9100502,15 15,14.8950586 15,14.765625 L15,0.234375 C15,0.104941406 14.9100502,0 14.7991071,0 Z M14,14 L11.0425176,6.04508704 L7.5,11.9019974 L5.08408507,9.38468002 L2.08333333,14 L1,14 L1,1 L14,1 L14,14 Z" id="Shape"></path>
            </g>
        </g>
    </g>
</svg>