<?xml version="1.0" standalone="no"?><!DOCTYPE svg PUBLIC "-//W3C//DTD SVG 1.1//EN" "http://www.w3.org/Graphics/SVG/1.1/DTD/svg11.dtd"><svg t="1499857869031" class="icon" style="" viewBox="0 0 1024 1024" version="1.1" xmlns="http://www.w3.org/2000/svg" p-id="39845" xmlns:xlink="http://www.w3.org/1999/xlink" width="128" height="128"><defs><style type="text/css"></style></defs><path d="M246.514726 474.074074C267.373985 474.074074 284.440652 491.140741 284.440652 512 284.440652 532.859259 267.373985 549.925926 246.514726 549.925926L37.922133 549.925926C17.062874 549.925926-0.003793 532.859259-0.003793 512-0.003793 491.140741 17.062874 474.074074 37.922133 474.074074L246.514726 474.074074Z" p-id="39846" fill="#c5c5c5"></path><path d="M263.120593 611.894993C281.192296 601.465363 304.497778 607.704178 314.927407 625.775881 325.357037 643.847585 319.118222 667.153067 301.046519 677.582696L120.405333 781.878993C102.33363 792.308622 79.028148 786.069807 68.598519 767.998104 58.168889 749.9264 64.407704 726.620919 82.479407 716.191289L263.120593 611.894993Z" p-id="39847" fill="#c5c5c5"></path><path d="M346.411615 722.949689C356.841244 704.877985 380.146726 698.63917 398.21843 709.0688 416.290133 719.49843 422.528948 742.803911 412.099319 760.875615L307.803022 941.5168C297.373393 959.588504 274.067911 965.827319 255.996207 955.397689 237.924504 944.968059 231.685689 921.662578 242.115319 903.590874L346.411615 722.949689Z" p-id="39848" fill="#c5c5c5"></path><path d="M549.922133 986.074074C549.922133 1006.933333 532.855467 1024 511.996207 1024 491.136948 1024 474.070281 1006.933333 474.070281 986.074074L474.070281 777.481481C474.070281 756.622222 491.136948 739.555556 511.996207 739.555556 532.855467 739.555556 549.922133 756.622222 549.922133 777.481481L549.922133 986.074074Z" p-id="39849" fill="#c5c5c5"></path><path d="M781.877096 903.596563C792.306726 921.668267 786.067911 944.973748 767.996207 955.403378 749.924504 965.833007 726.619022 959.594193 716.189393 941.522489L611.893096 760.881304C601.463467 742.8096 607.702281 719.504119 625.773985 709.074489 643.845689 698.644859 667.15117 704.883674 677.5808 722.955378L781.877096 903.596563Z" p-id="39850" fill="#c5c5c5"></path><path d="M941.518696 716.191289C959.5904 726.620919 965.829215 749.9264 955.399585 767.998104 944.969956 786.069807 921.664474 792.308622 903.59277 781.878993L722.951585 677.582696C704.879881 667.153067 698.641067 643.847585 709.070696 625.775881 719.500326 607.704178 742.805807 601.465363 760.877511 611.894993L941.518696 716.191289Z" p-id="39851" fill="#c5c5c5"></path><path d="M1023.996207 511.920356 1023.996207 512.072059C1023.996207 532.988207 1003.876504 549.922133 979.053985 549.922133L784.493985 549.922133C759.671467 549.922133 739.551763 532.988207 739.551763 512.072059L739.551763 511.920356C739.551763 491.02317 759.671467 474.070281 784.493985 474.070281L979.053985 474.070281C1003.876504 474.070281 1023.996207 491.02317 1023.996207 511.920356" p-id="39852" fill="#c5c5c5"></path><path d="M903.59277 242.117215C921.664474 231.687585 944.969956 237.9264 955.399585 255.998104 965.829215 274.069807 959.5904 297.375289 941.518696 307.804919L760.877511 412.101215C742.805807 422.530844 719.500326 416.29203 709.070696 398.220326 698.641067 380.148622 704.879881 356.843141 722.951585 346.413511L903.59277 242.117215Z" p-id="39853" fill="#c5c5c5"></path><path d="M716.189393 82.475615C726.619022 64.403911 749.924504 58.165096 767.996207 68.594726 786.067911 79.024356 792.306726 102.329837 781.877096 120.401541L677.5808 301.042726C667.15117 319.11443 643.845689 325.353244 625.773985 314.923615 607.702281 304.493985 601.463467 281.188504 611.893096 263.1168L716.189393 82.475615Z" p-id="39854" fill="#c5c5c5"></path><path d="M549.922133 246.518519C549.922133 267.377778 532.855467 284.444444 511.996207 284.444444 491.136948 284.444444 474.070281 267.377778 474.070281 246.518519L474.070281 37.925926C474.070281 17.066667 491.136948 0 511.996207 0 532.855467 0 549.922133 17.066667 549.922133 37.925926L549.922133 246.518519Z" p-id="39855" fill="#c5c5c5"></path><path d="M412.099319 263.122489C422.528948 281.194193 416.290133 304.499674 398.21843 314.929304 380.146726 325.358933 356.841244 319.120119 346.411615 301.048415L242.115319 120.40723C231.685689 102.335526 237.924504 79.030044 255.996207 68.600415 274.067911 58.170785 297.373393 64.4096 307.803022 82.481304L412.099319 263.122489Z" p-id="39856" fill="#c5c5c5"></path><path d="M301.046519 346.413511C319.118222 356.843141 325.357037 380.148622 314.927407 398.220326 304.497778 416.29203 281.192296 422.530844 263.120593 412.101215L82.479407 307.804919C64.407704 297.375289 58.168889 274.069807 68.598519 255.998104 79.028148 237.9264 102.33363 231.687585 120.405333 242.117215L301.046519 346.413511Z" p-id="39857" fill="#c5c5c5"></path></svg>