<?xml version="1.0" encoding="UTF-8"?>
<svg width="17px" height="17px" viewBox="0 0 17 17" version="1.1" xmlns="http://www.w3.org/2000/svg" xmlns:xlink="http://www.w3.org/1999/xlink">
    <title>Icon-apple-fill</title>
    <g id="Page-1" stroke="none" stroke-width="1" fill="none" fill-rule="evenodd">
        <g id="Icon-apple-fill" transform="translate(0.173828, 0.874684)" fill="#89D185" fill-rule="nonzero">
            <path d="M12.5171321,8.45544061 C12.5094401,7.14395312 13.1036478,6.15552999 14.3036012,5.42671217 C13.6324734,4.46521107 12.6171282,3.93638547 11.2787187,3.83446636 C10.0114603,3.73447024 8.62497571,4.5728992 8.11730313,4.5728992 C7.58078552,4.5728992 6.35391013,3.8690804 5.38856303,3.8690804 C3.39633277,3.89984843 1.27910736,5.4574802 1.27910736,8.6265878 C1.27910736,9.56308987 1.45025456,10.53036 1.79254895,11.5264751 C2.25022347,12.8379626 3.90015934,16.0512992 5.6212463,15.9993782 C6.52121132,15.9782252 7.15772504,15.3609415 8.32883337,15.3609415 C9.46532766,15.3609415 10.0537663,15.9993782 11.0575735,15.9993782 C12.7940444,15.9743792 14.2862941,13.0533388 14.7208926,11.7380053 C12.392137,10.6399711 12.5171321,8.52274568 12.5171321,8.45544061 Z M10.4960568,2.59028394 C11.4710189,1.43263663 11.3825608,0.37883143 11.3537158,1.7489603e-15 C10.4922108,0.0499980568 9.4960957,0.586515666 8.92881006,1.24610542 C8.30383435,1.95377022 7.93654093,2.82873621 8.01538402,3.81523633 C8.94611707,3.88638742 9.79608404,3.40755987 10.4960568,2.59028394 Z" id="Shape"></path>
        </g>
    </g>
</svg>