<?xml version="1.0" encoding="UTF-8"?>
<svg width="16px" height="14px" viewBox="0 0 16 14" version="1.1" xmlns="http://www.w3.org/2000/svg" xmlns:xlink="http://www.w3.org/1999/xlink">
    <!-- Generator: Sketch 45.1 (43504) - http://www.bohemiancoding.com/sketch -->
    <title>view data</title>
    <desc>Created with Sketch.</desc>
    <defs></defs>
    <g id="Page-1" stroke="none" stroke-width="1" fill="none" fill-rule="evenodd">
        <g id="Artboard" transform="translate(-189.000000, -11.000000)" fill-rule="nonzero" fill="#C5C5C5">
            <g id="view-data" transform="translate(190.000000, 12.000000)">
                <path d="M6.24000412,12 L4.999,12 C4.25871764,12 3.61237381,11.5978014 3.26656439,11 L1,11 L1,3 L5.999,3 L5.999,6 L7.999,6 L7.999,3 L13,3 L13,7.60000038 L14,7.60000038 L14,0 L0,0 L0,12 L6.24000412,12 C6.24000412,12 6.24000412,12 6.24000412,12 Z M5.14472374,9.52826054 L5.14472374,8.4716114 C5.14472374,8.28459738 5.29880219,8.13205802 5.4875975,8.13205802 L10.5160392,8.13205802 C10.6696581,8.13793422 10.7902119,8.23121358 10.8361898,8.36033351 C10.8486718,8.39569031 10.8590566,8.43234187 10.8590566,8.4716114 L10.8590566,8.58673088 C10.8550205,8.71319015 10.8550205,9.44990645 10.8550205,9.8697774 C10.8550205,10.1609268 10.5701613,10.1766062 10.5701613,10.1766062 L9.02739458,10.171541 L9.02739458,11 L10.5160536,11 C11.1013708,11 11.6036806,10.6598633 11.8460666,10.171541 C11.9179708,10.0022978 11.9553305,9.80650508 11.9688036,9.71881736 C11.990665,9.65563041 12.0019405,9.59370976 12.0019405,9.52827477 L12.0019405,8.58674511 L12.0019405,8.47162563 C12.0019405,8.43369354 11.9933223,8.39775338 11.9902772,8.36034773 C11.9845605,8.28333108 11.9759423,8.20731039 11.9586054,8.1339219 C11.8037514,7.48570433 11.2175867,7 10.516068,7 L5.4875975,7 C4.66831148,7 4.00194046,7.66026877 4.00194046,8.47162563 L4.00194046,9.52827477 C4.00194046,10.3397028 4.66831148,11 5.4875975,11 L6.47548359,11 L6.47548359,10.0583423 C6.47548359,9.99302112 6.48843957,9.9316696 6.4951761,9.86781393 L5.4875975,9.86781393 C5.29880219,9.8677997 5.14472374,9.71537416 5.14472374,9.52826054 Z M13.7143777,8.60000038 L12.9402768,8.60000038 L12.7117222,8.60000038 L12.7117222,9.54152335 C12.7117222,9.60695787 12.6996567,9.66887808 12.6920583,9.73206458 L12.9206991,9.73206458 L13.7143777,9.73206458 C13.903188,9.73206458 14.0572527,9.8845744 14.0572527,10.0716013 L14.0572527,11.1279584 C14.0572527,11.3150991 13.9031737,11.4677797 13.7143777,11.4677797 L8.68588914,11.4677797 C8.53218358,11.4620316 8.41171554,11.3687529 8.36573746,11.2396339 C8.35328416,11.2042631 8.34298542,11.1675122 8.34298542,11.1279584 L8.34298542,11.0132381 L8.34298542,10.0716155 C8.34298542,9.99960769 8.3710951,9.93643542 8.40986263,9.88108854 C8.47194238,9.79348681 8.56980202,9.73207881 8.68588914,9.73207881 L10.1032667,9.73207881 L10.1032667,8.60001461 L9.93485271,8.60001461 L8.68588914,8.60001461 C8.10051242,8.60001461 7.59840186,8.94004933 7.35587142,9.42811204 C7.32019208,9.5009878 7.29211112,9.57643883 7.26845417,9.6548066 C7.24601812,9.72805229 7.22998828,9.80331835 7.21977571,9.88110277 C7.21127242,9.94438886 7.19999695,10.0063091 7.19999695,10.0716298 L7.19999695,11.0132666 L7.19999695,11.1279868 C7.19999695,11.1662744 7.20864387,11.2018586 7.21166024,11.2396623 C7.21752062,11.31665 7.22588027,11.3926843 7.24333212,11.4659585 C7.39827295,12.1142995 7.98446839,12.6000004 8.68587477,12.6000004 L13.7143633,12.6000004 C14.5335374,12.6000004 15.1999969,11.9397079 15.1999969,11.1279868 L15.1999969,10.0716155 C15.1999969,9.26016486 14.5335517,8.60000038 13.7143777,8.60000038 Z" id="Shape"></path>
            </g>
        </g>
    </g>
</svg>